HIERARCHY
ROOT hip
{
  OFFSET 0 0 0
  CHANNELS 6 Xposition Yposition Zposition Zrotation Yrotation Xrotation
  JOINT abdomen
  {
    OFFSET 0 20.6881 -0.73152
    CHANNELS 3 Zrotation Xrotation Yrotation
    JOINT chest
    {
      OFFSET 0 11.7043 -0.48768
      CHANNELS 3 Zrotation Xrotation Yrotation
      JOINT neck
      {
        OFFSET 0 22.1894 -2.19456
        CHANNELS 3 Zrotation Xrotation Yrotation
        JOINT head
        {
          OFFSET -0.24384 7.07133 1.2192
          CHANNELS 3 Zrotation Xrotation Yrotation
          JOINT leftEye
          {
            OFFSET 4.14528 8.04674 8.04672
            CHANNELS 3 Zrotation Xrotation Yrotation
            End Site
            {
              OFFSET 1 0 0
            }
          }
          JOINT rightEye
          {
            OFFSET -3.6576 8.04674 8.04672
            CHANNELS 3 Zrotation Xrotation Yrotation
            End Site
            {
              OFFSET 1 0 0
            }
          }
        }
      }
      JOINT rCollar
      {
        OFFSET -2.68224 19.2634 -4.8768
        CHANNELS 3 Zrotation Xrotation Yrotation
        JOINT rShldr
        {
          OFFSET -8.77824 -1.95073 1.46304
          CHANNELS 3 Zrotation Xrotation Yrotation
          JOINT rForeArm
          {
            OFFSET -28.1742 -1.7115 0.48768
            CHANNELS 3 Zrotation Xrotation Yrotation
            JOINT rHand
            {
              OFFSET -22.5879 0.773209 7.07136
              CHANNELS 3 Zrotation Xrotation Yrotation
              JOINT rThumb1
              {
                OFFSET -1.2192 -0.487915 3.41376
                CHANNELS 3 Zrotation Xrotation Yrotation
                JOINT rThumb2
                {
                  OFFSET -3.37035 -0.52449 3.41376
                  CHANNELS 3 Zrotation Xrotation Yrotation
                  End Site
                  {
                    OFFSET -1.78271 -1.18214 1.43049
                  }
                }
              }
              JOINT rIndex1
              {
                OFFSET -7.75947 0.938293 5.60832
                CHANNELS 3 Zrotation Xrotation Yrotation
                JOINT rIndex2
                {
                  OFFSET -2.54057 -0.884171 1.56538
                  CHANNELS 3 Zrotation Xrotation Yrotation
                  End Site
                  {
                    OFFSET -1.62519 -0.234802 1.16502
                  }
                }
              }
              JOINT rMid1
              {
                OFFSET -8.24714 1.18213 3.41376
                CHANNELS 3 Zrotation Xrotation Yrotation
                JOINT rMid2
                {
                  OFFSET -3.10165 -0.590103 1.0647
                  CHANNELS 3 Zrotation Xrotation Yrotation
                  End Site
                  {
                    OFFSET -2.48547 -0.328903 0.83742
                  }
                }
              }
              JOINT rRing1
              {
                OFFSET -8.82822 0.546677 1.51678
                CHANNELS 3 Zrotation Xrotation Yrotation
                JOINT rRing2
                {
                  OFFSET -2.60934 -0.819778 -0.0198488
                  CHANNELS 3 Zrotation Xrotation Yrotation
                  End Site
                  {
                    OFFSET -2.33842 -0.294052 0.168128
                  }
                }
              }
              JOINT rPinky1
              {
                OFFSET -8.27202 -0.0477905 -0.4584
                CHANNELS 3 Zrotation Xrotation Yrotation
                JOINT rPinky2
                {
                  OFFSET -1.82734 -0.647385 -0.700984
                  CHANNELS 3 Zrotation Xrotation Yrotation
                  End Site
                  {
                    OFFSET -1.69225 -0.51767 -0.607171
                  }
                }
              }
            }
          }
        }
      }
      JOINT lCollar
      {
        OFFSET 2.68224 19.2634 -4.8768
        CHANNELS 3 Zrotation Xrotation Yrotation
        JOINT lShldr
        {
          OFFSET 8.77824 -1.95073 1.46304
          CHANNELS 3 Zrotation Xrotation Yrotation
          JOINT lForeArm
          {
            OFFSET 28.1742 -1.7115 0.48768
            CHANNELS 3 Zrotation Xrotation Yrotation
            JOINT lHand
            {
              OFFSET 22.5879 0.773209 7.07136
              CHANNELS 3 Zrotation Xrotation Yrotation
              JOINT lThumb1
              {
                OFFSET 1.2192 -0.487915 3.41376
                CHANNELS 3 Zrotation Xrotation Yrotation
                JOINT lThumb2
                {
                  OFFSET 3.37035 -0.52449 3.41376
                  CHANNELS 3 Zrotation Xrotation Yrotation
                  End Site
                  {
                    OFFSET 1.78271 -1.18214 1.43049
                  }
                }
              }
              JOINT lIndex1
              {
                OFFSET 7.75947 0.938293 5.60832
                CHANNELS 3 Zrotation Xrotation Yrotation
                JOINT lIndex2
                {
                  OFFSET 2.54057 -0.884171 1.56538
                  CHANNELS 3 Zrotation Xrotation Yrotation
                  End Site
                  {
                    OFFSET 1.62519 -0.234802 1.16502
                  }
                }
              }
              JOINT lMid1
              {
                OFFSET 8.24714 1.18213 3.41376
                CHANNELS 3 Zrotation Xrotation Yrotation
                JOINT lMid2
                {
                  OFFSET 3.10165 -0.590103 1.0647
                  CHANNELS 3 Zrotation Xrotation Yrotation
                  End Site
                  {
                    OFFSET 2.48547 -0.328903 0.83742
                  }
                }
              }
              JOINT lRing1
              {
                OFFSET 8.82822 0.546677 1.51678
                CHANNELS 3 Zrotation Xrotation Yrotation
                JOINT lRing2
                {
                  OFFSET 2.60934 -0.819778 -0.0198488
                  CHANNELS 3 Zrotation Xrotation Yrotation
                  End Site
                  {
                    OFFSET 2.33842 -0.294052 0.168128
                  }
                }
              }
              JOINT lPinky1
              {
                OFFSET 8.27202 -0.0477905 -0.4584
                CHANNELS 3 Zrotation Xrotation Yrotation
                JOINT lPinky2
                {
                  OFFSET 1.82734 -0.647385 -0.700984
                  CHANNELS 3 Zrotation Xrotation Yrotation
                  End Site
                  {
                    OFFSET 1.69225 -0.51767 -0.607171
                  }
                }
              }
            }
          }
        }
      }
    }
  }
  JOINT rButtock
  {
    OFFSET -8.77824 4.35084 1.2192
    CHANNELS 3 Zrotation Xrotation Yrotation
    JOINT rThigh
    {
      OFFSET 0 -1.70687 -2.19456
      CHANNELS 3 Zrotation Xrotation Yrotation
      JOINT rShin
      {
        OFFSET 0 -36.8199 0.73152
        CHANNELS 3 Zrotation Xrotation Yrotation
        JOINT rFoot
        {
          OFFSET 0.73152 -45.1104 -5.12064
          CHANNELS 3 Zrotation Xrotation Yrotation
          End Site
          {
            OFFSET -1.1221 -3.69964 12.103
          }
        }
      }
    }
  }
  JOINT lButtock
  {
    OFFSET 8.77824 4.35084 1.2192
    CHANNELS 3 Zrotation Xrotation Yrotation
    JOINT lThigh
    {
      OFFSET 0 -1.70687 -2.19456
      CHANNELS 3 Zrotation Xrotation Yrotation
      JOINT lShin
      {
        OFFSET 0 -36.8199 0.73152
        CHANNELS 3 Zrotation Xrotation Yrotation
        JOINT lFoot
        {
          OFFSET -0.73152 -45.1104 -5.12064
          CHANNELS 3 Zrotation Xrotation Yrotation
          End Site
          {
            OFFSET 1.1221 -3.69964 12.103
          }
        }
      }
    }
  }
}
MOTION
Frames:	6
Frame Time:	0.00833333
43.608 74.6551 244.598 0.0 0.0 0.0 2.23593 -0.000458344 0.0604461 0.615844 0.00897688 0.106599 3.64624e-14 7.95139e-16 -5.96354e-16 1.09599e-13 3.18055e-15 -1.91641e-15 -0.0 0.0 0.0 -0.0 0.0 0.0 1.81383e-14 -5.82377e-18 -9.93923e-17 3.84538e-13 -1.73937e-16 -4.57205e-15 6.62554e-12 -1.97811e-12 -2.00375e-13 7.56291e-11 1.92515e-12 -1.17044e-12 1.78432e-10 -1.18494e-13 -2.9611e-12 3.08145e-10 -2.03556e-13 -5.11831e-12 1.78436e-10 -1.18078e-13 -2.977e-12 7.73091 5.47488 0.417314 1.78431e-10 -1.18774e-13 -2.9611e-12 2.90554 0.965183 0.102902 1.78431e-10 -1.18575e-13 -2.9611e-12 10.2786 0.731801 0.0259123 1.78422e-10 -1.13705e-13 -2.95155e-12 2.22167 -0.733487 -0.20892 1.78429e-14 -7.95915e-18 -4.47265e-16 3.82999e-13 -1.73937e-16 -6.16232e-15 6.59572e-12 1.96896e-12 -1.7175e-13 7.56505e-11 -2.02805e-12 -1.17362e-12 1.7842e-10 -1.3131e-13 -2.94837e-12 3.08134e-10 -2.22639e-13 -5.10399e-12 1.78416e-10 -1.31595e-13 -2.93565e-12 -7.73091 5.47488 -0.417314 1.78421e-10 -1.31595e-13 -2.95155e-12 -2.90554 0.965183 -0.102902 1.78422e-10 -1.31794e-13 -2.95076e-12 -10.2786 0.731801 -0.0259123 1.78428e-10 -1.28017e-13 -2.95792e-12 -2.22167 -0.733487 0.20892 -2.03217e-16 0.0 -3.88251e-19 2.21205 -7.80166 -0.224273 0.0052186 8.55961 0.135854 -0.549154 -0.766555 0.0462712 2.03217e-16 0.0 3.88251e-19 1.18445 -1.92859 -0.00254978 0.00908734 -2.07858 0.0749486 0.513208 3.99847 -0.140491
45.3876 71.4425 237.036 -173.053 19.4772 -152.325 -0.766039 10.4034 1.51664 1.01571 -1.06928 0.590534 -2.59842 5.60157 -2.8341 1.06645 -11.3029 -5.22643 -0.0 0.0 0.0 -0.0 0.0 0.0 -1.21721e-13 -2.14074e-14 5.18354e-14 20.9625 7.21538 37.6812 -2.21191 -0.787552 3.6551 0.0831429 6.42359 0.882655 -3.49036e-10 1.81508e-09 -1.60475e-09 -6.32783e-10 3.39343e-09 -2.7618e-09 -3.49033e-10 1.81509e-09 -1.60476e-09 7.73091 5.47488 0.417314 -3.49037e-10 1.81508e-09 -1.60475e-09 2.90554 0.965183 0.102902 -3.49035e-10 1.81508e-09 -1.60475e-09 10.2786 0.731801 0.0259123 -3.49045e-10 1.81509e-09 -1.60474e-09 2.22167 -0.733487 -0.20892 -1.2198e-13 -2.14035e-14 5.15454e-14 11.9659 -15.7627 -8.47327 5.42441 -2.76307 -8.12491 -0.691566 -18.6369 2.14547 -5.04704e-10 -9.02637e-10 5.91664e-10 -9.00828e-10 -2.23687e-09 9.8374e-10 -5.04708e-10 -9.02638e-10 5.91672e-10 -7.73091 5.47488 -0.417314 -5.04706e-10 -9.02638e-10 5.9166e-10 -2.90554 0.965183 -0.102902 -5.04707e-10 -9.02642e-10 5.91661e-10 -10.2786 0.731801 -0.0259123 -5.04697e-10 -9.02635e-10 5.91656e-10 -2.22167 -0.733487 0.20892 -2.03217e-16 0.0 -3.88251e-19 5.32292 -11.0003 1.19602 0.0883692 14.2145 0.42402 -0.564014 1.80487 -11.3781 2.03217e-16 0.0 3.88251e-19 3.53896 -25.6476 4.44875 0.0111658 13.833 -0.128379 0.414545 4.16628 -2.92238
45.9654 70.5274 232.822 -171.592 16.8591 -148.028 -4.65277 21.5603 3.14871 1.50225 -2.22683 1.08325 -4.72737 11.5454 -5.94601 -0.327079 -22.9544 -11.5467 -0.0 0.0 0.0 -0.0 0.0 0.0 -2.76277e-13 -4.4884e-14 1.07822e-13 36.1402 4.21882 77.4625 -4.45109 -1.61413 7.53784 -0.0493829 13.1493 1.84521 -9.43579e-10 3.90677e-09 -3.3983e-09 -1.69326e-09 7.29292e-09 -5.84829e-09 -9.43577e-10 3.90679e-09 -3.3983e-09 7.73091 5.47488 0.417314 -9.43581e-10 3.90677e-09 -3.3983e-09 2.90554 0.965183 0.102902 -9.43577e-10 3.90677e-09 -3.39829e-09 10.2786 0.731801 0.0259123 -9.43587e-10 3.90679e-09 -3.39828e-09 2.22167 -0.733487 -0.20892 -2.76499e-13 -4.48734e-14 1.07595e-13 18.8211 -31.1929 -19.7384 10.2898 -5.47653 -16.7382 0.470333 -38.2528 5.32907 -1.25995e-09 -1.92587e-09 1.24173e-09 -2.23695e-09 -4.75137e-09 2.06419e-09 -1.25996e-09 -1.92587e-09 1.24173e-09 -7.73091 5.47488 -0.417314 -1.25996e-09 -1.92587e-09 1.24172e-09 -2.90554 0.965183 -0.102902 -1.25996e-09 -1.92588e-09 1.24173e-09 -10.2786 0.731801 -0.0259123 -1.25995e-09 -1.92587e-09 1.24172e-09 -2.22167 -0.733487 0.20892 -2.03217e-16 0.0 -3.88251e-19 9.55067 -14.5186 4.37679 0.110391 20.4194 0.747231 1.08864 5.54203 -23.9472 2.03217e-16 0.0 3.88251e-19 11.5226 -49.999 12.6325 0.156926 30.6141 -0.38562 0.315539 4.3453 -6.2819
46.5417 70.08 228.082 -170.201 15.2974 -144.543 -8.58306 31.1218 5.08808 1.87017 -3.22478 1.56057 -6.07802 16.6367 -8.83426 -3.87574 -32.6722 -18.3584 -0.0 0.0 0.0 -0.0 0.0 0.0 -4.0144e-13 -6.42105e-14 1.55705e-13 53.9685 -9.87923 109.75 -6.33612 -2.32423 10.9734 -0.373988 19.2519 2.78733 -1.40397e-09 5.44549e-09 -4.80834e-09 -2.51464e-09 1.01807e-08 -8.27516e-09 -1.40397e-09 5.44551e-09 -4.80834e-09 7.73091 5.47488 0.417314 -1.40397e-09 5.44549e-09 -4.80834e-09 2.90554 0.965183 0.102902 -1.40397e-09 5.44549e-09 -4.80834e-09 10.2786 0.731801 0.0259123 -1.40398e-09 5.44551e-09 -4.80832e-09 2.22167 -0.733487 -0.20892 -4.01626e-13 -6.41946e-14 1.55531e-13 18.3213 -42.3888 -34.0938 13.9838 -7.62388 -24.5776 4.80123 -55.4702 10.8029 -1.87095e-09 -2.70765e-09 1.78089e-09 -3.31875e-09 -6.71016e-09 2.96143e-09 -1.87096e-09 -2.70765e-09 1.78089e-09 -7.73091 5.47488 -0.417314 -1.87096e-09 -2.70765e-09 1.78088e-09 -2.90554 0.965183 -0.102902 -1.87096e-09 -2.70766e-09 1.78089e-09 -10.2786 0.731801 -0.0259123 -1.87095e-09 -2.70765e-09 1.78088e-09 -2.22167 -0.733487 0.20892 -2.03217e-16 0.0 -3.88251e-19 12.0412 -17.3615 4.15618 0.066089 25.5216 1.06873 2.29899 5.8307 -34.4125 2.03217e-16 0.0 3.88251e-19 37.2389 -69.5071 36.5512 0.464556 45.6538 -0.749326 0.265654 4.4688 -8.48964
47.3133 69.8713 222.636 -168.096 14.5756 -142.492 -11.3458 36.7597 7.18904 1.90473 -3.82457 1.99738 -6.77604 19.7675 -10.822 -7.27816 -38.822 -23.7254 -0.0 0.0 0.0 -0.0 0.0 0.0 -4.53118e-13 -7.31619e-14 1.83329e-13 73.499 -23.1853 131.641 -7.55138 -2.78102 13.2831 -0.750021 23.8131 3.55601 -1.52899e-09 5.60177e-09 -5.25963e-09 -2.73824e-09 1.05392e-08 -9.05295e-09 -1.52899e-09 5.6018e-09 -5.25963e-09 7.73091 5.47488 0.417314 -1.52899e-09 5.60178e-09 -5.25963e-09 2.90554 0.965183 0.102902 -1.52898e-09 5.60178e-09 -5.25963e-09 10.2786 0.731801 0.0259123 -1.52899e-09 5.6018e-09 -5.25961e-09 2.22167 -0.733487 -0.20892 -4.5327e-13 -7.31438e-14 1.8318e-13 13.6737 -47.686 -47.3633 16.2946 -8.96386 -30.2971 12.842 -66.973 19.3089 -2.12133e-09 -2.88578e-09 2.04278e-09 -3.76479e-09 -7.27967e-09 3.40063e-09 -2.12133e-09 -2.88578e-09 2.04277e-09 -7.73091 5.47488 -0.417314 -2.12134e-09 -2.88578e-09 2.04277e-09 -2.90554 0.965183 -0.102902 -2.12134e-09 -2.88579e-09 2.04277e-09 -10.2786 0.731801 -0.0259123 -2.12132e-09 -2.88578e-09 2.04277e-09 -2.22167 -0.733487 0.20892 -2.03217e-16 0.0 -3.88251e-19 9.07704 -18.4086 -4.88677 0.00766242 27.8694 1.31888 -1.68635 -0.00490525 -39.4044 2.03217e-16 0.0 3.88251e-19 94.2422 -74.3102 89.8302 0.884317 56.342 -1.22221 0.291596 4.49012 -7.81451
47.8477 70.9026 217.699 -165.121 14.1238 -136.891 -11.5474 36.9239 8.89068 1.46815 -3.85531 2.365 -7.20009 20.3429 -11.3818 -7.29115 -40.986 -25.0854 -0.0 0.0 0.0 -0.0 0.0 0.0 -3.97396e-13 -6.47924e-14 1.98415e-13 85.0333 -27.7345 141.538 -7.83016 -2.86024 13.8466 -1.00965 26.5456 4.04404 -1.1931e-09 3.65785e-09 -4.27162e-09 -2.13712e-09 7.04704e-09 -7.3547e-09 -1.1931e-09 3.65787e-09 -4.27162e-09 7.73091 5.47488 0.417314 -1.1931e-09 3.65785e-09 -4.27162e-09 2.90554 0.965183 0.102902 -1.1931e-09 3.65786e-09 -4.27162e-09 10.2786 0.731801 0.0259123 -1.19311e-09 3.65787e-09 -4.27161e-09 2.22167 -0.733487 -0.20892 -3.97517e-13 -6.47772e-14 1.98249e-13 12.1643 -49.0453 -52.4874 17.4443 -9.72186 -33.3136 20.8945 -72.2574 27.5009 -1.78529e-09 -2.05151e-09 1.87426e-09 -3.17902e-09 -5.56833e-09 3.12916e-09 -1.78529e-09 -2.05151e-09 1.87426e-09 -7.73091 5.47488 -0.417314 -1.78529e-09 -2.05151e-09 1.87426e-09 -2.90554 0.965183 -0.102902 -1.7853e-09 -2.05152e-09 1.87426e-09 -10.2786 0.731801 -0.0259123 -1.78528e-09 -2.05151e-09 1.87426e-09 -2.22167 -0.733487 0.20892 -2.03217e-16 0.0 -3.88251e-19 -2.79669 -14.4067 -31.056 0.0124641 25.7302 1.38524 -12.3052 -16.364 -34.9399 2.03217e-16 0.0 3.88251e-19 123.617 -69.1564 114.2 1.20816 61.4016 -1.7031 0.407021 3.37359 -2.72329
